<!DOCTYPE svg PUBLIC "-//W3C//DTD SVG 1.1//EN" "http://www.w3.org/Graphics/SVG/1.1/DTD/svg11.dtd">
<!-- Uploaded to: SVG Repo, www.svgrepo.com, Transformed by: SVG Repo Mixer Tools -->
<svg height="800px" width="800px" version="1.1" id="Layer_1" xmlns="http://www.w3.org/2000/svg" xmlns:xlink="http://www.w3.org/1999/xlink" viewBox="0 0 393.568 393.568" xml:space="preserve" fill="#000000">
<g id="SVGRepo_bgCarrier" stroke-width="0"/>
<g id="SVGRepo_tracerCarrier" stroke-linecap="round" stroke-linejoin="round"/>
<g id="SVGRepo_iconCarrier"> <circle style="fill:#F5f5f5;" cx="196.784" cy="196.784" r="196.784"/> <g> <path style="fill:#646B79;" d="M100.913,44.024c-12.024,0-21.98,9.697-21.98,21.98v261.754c0,12.024,9.697,21.98,21.98,21.98 c12.024,0,21.98-9.697,21.98-21.98V66.069C122.893,53.98,112.937,44.024,100.913,44.024z"/> <path style="fill:#646B79;" d="M196.784,44.024c-12.024,0-21.98,9.697-21.98,21.98v261.754c0,12.024,9.697,21.98,21.98,21.98 c12.024,0,21.98-9.697,21.98-21.98V66.069C218.764,53.98,208.808,44.024,196.784,44.024z"/> <path style="fill:#646B79;" d="M292.655,44.024c-12.024,0-21.98,9.697-21.98,21.98v261.754c0,12.024,9.697,21.98,21.98,21.98 c12.024,0,21.98-9.697,21.98-21.98V66.069C314.699,53.98,304.743,44.024,292.655,44.024z"/> </g> <g> <path style="fill:#333842;" d="M78.869,271.968v55.531c0,12.024,9.697,21.98,21.98,21.98c12.024,0,21.98-9.697,21.98-21.98v-55.531 H78.869L78.869,271.968z"/> <path style="fill:#333842;" d="M174.804,191.547v136.275c0,12.024,9.697,21.98,21.98,21.98c12.024,0,21.98-9.697,21.98-21.98 V191.547H174.804L174.804,191.547z"/> <path style="fill:#333842;" d="M270.675,138.861v188.638c0,12.024,9.697,21.98,21.98,21.98c12.024,0,21.98-9.697,21.98-21.98 V138.861H270.675z"/> </g> <g> <path style="fill:#F5f5f50582F;" d="M129.422,257.034H72.275c-9.18,0-16.743,7.628-16.743,16.743v14.675 c0,9.18,7.628,16.743,16.743,16.743h57.406c9.18,0,16.743-7.628,16.743-16.743v-14.675 C146.23,264.663,138.861,257.034,129.422,257.034z"/> <path style="fill:#F5f5f50582F;" d="M225.358,176.873H168.21c-9.18,0-16.743,7.628-16.743,16.743v14.675 c0,9.18,7.628,16.743,16.743,16.743h57.406c9.18,0,16.743-7.628,16.743-16.743v-14.675 C242.36,184.501,234.796,176.873,225.358,176.873z"/> <path style="fill:#F5f5f50582F;" d="M321.228,116.881h-57.406c-9.18,0-16.743,7.628-16.743,16.743v14.675 c0,9.18,7.628,16.743,16.743,16.743h57.406c9.18,0,16.743-7.628,16.743-16.743v-14.675 C338.295,124.444,330.667,116.881,321.228,116.881z"/> </g> </g>
</svg>